<mxfile host="app.diagrams.net" agent="Mozilla/5.0 (Windows NT 10.0; Win64; x64) AppleWebKit/537.36 (KHTML, like Gecko) Chrome/131.0.0.0 Safari/537.36 Edg/131.0.0.0" version="25.0.1">
  <diagram name="Page-1" id="bozIwjCp13yPHNTaXhQK">
    <mxGraphModel dx="2745" dy="2127" grid="1" gridSize="10" guides="1" tooltips="1" connect="1" arrows="1" fold="1" page="1" pageScale="1" pageWidth="850" pageHeight="1100" math="0" shadow="0">
      <root>
        <mxCell id="0" />
        <mxCell id="1" parent="0" />
        <mxCell id="YUA5wfrdBOkKvpAy2gwH-1" value="" style="edgeStyle=orthogonalEdgeStyle;rounded=0;orthogonalLoop=1;jettySize=auto;html=1;" edge="1" parent="1" source="YUA5wfrdBOkKvpAy2gwH-2">
          <mxGeometry relative="1" as="geometry">
            <mxPoint x="-630.9655172413793" y="-1000" as="targetPoint" />
          </mxGeometry>
        </mxCell>
        <mxCell id="YUA5wfrdBOkKvpAy2gwH-2" value="&lt;font data-font-src=&quot;https://fonts.googleapis.com/css?family=Sarabun&quot; face=&quot;Sarabun&quot;&gt;Start&lt;/font&gt;" style="ellipse;whiteSpace=wrap;html=1;" vertex="1" parent="1">
          <mxGeometry x="-696.0000000000001" y="-1060" width="130" height="30" as="geometry" />
        </mxCell>
        <mxCell id="YUA5wfrdBOkKvpAy2gwH-3" value="" style="edgeStyle=orthogonalEdgeStyle;rounded=0;orthogonalLoop=1;jettySize=auto;html=1;" edge="1" parent="1">
          <mxGeometry relative="1" as="geometry">
            <mxPoint x="-632.9655172413793" y="-680" as="sourcePoint" />
            <mxPoint x="-633" y="-650" as="targetPoint" />
          </mxGeometry>
        </mxCell>
        <mxCell id="YUA5wfrdBOkKvpAy2gwH-4" value="กำหนดตัวแปร arr input1" style="rounded=0;whiteSpace=wrap;html=1;" vertex="1" parent="1">
          <mxGeometry x="-698.0000000000001" y="-720" width="130" height="40" as="geometry" />
        </mxCell>
        <mxCell id="YUA5wfrdBOkKvpAy2gwH-5" value="" style="edgeStyle=orthogonalEdgeStyle;rounded=0;orthogonalLoop=1;jettySize=auto;html=1;" edge="1" parent="1">
          <mxGeometry relative="1" as="geometry">
            <mxPoint x="-631.9655172413793" y="-610" as="sourcePoint" />
            <mxPoint x="-632" y="-580" as="targetPoint" />
          </mxGeometry>
        </mxCell>
        <mxCell id="YUA5wfrdBOkKvpAy2gwH-6" value="" style="edgeStyle=orthogonalEdgeStyle;rounded=0;orthogonalLoop=1;jettySize=auto;html=1;" edge="1" parent="1" target="YUA5wfrdBOkKvpAy2gwH-17">
          <mxGeometry relative="1" as="geometry">
            <mxPoint x="-632" y="-540" as="sourcePoint" />
          </mxGeometry>
        </mxCell>
        <mxCell id="YUA5wfrdBOkKvpAy2gwH-7" value="กำหนดตัวแปร arr input2" style="rounded=0;whiteSpace=wrap;html=1;" vertex="1" parent="1">
          <mxGeometry x="-697.0000000000001" y="-650" width="130" height="40" as="geometry" />
        </mxCell>
        <mxCell id="YUA5wfrdBOkKvpAy2gwH-8" value="" style="edgeStyle=orthogonalEdgeStyle;rounded=0;orthogonalLoop=1;jettySize=auto;html=1;" edge="1" parent="1" target="YUA5wfrdBOkKvpAy2gwH-10">
          <mxGeometry relative="1" as="geometry">
            <mxPoint x="-632.9655172413793" y="-960" as="sourcePoint" />
          </mxGeometry>
        </mxCell>
        <mxCell id="YUA5wfrdBOkKvpAy2gwH-9" value="" style="edgeStyle=orthogonalEdgeStyle;rounded=0;orthogonalLoop=1;jettySize=auto;html=1;" edge="1" parent="1" source="YUA5wfrdBOkKvpAy2gwH-10" target="YUA5wfrdBOkKvpAy2gwH-15">
          <mxGeometry relative="1" as="geometry" />
        </mxCell>
        <mxCell id="YUA5wfrdBOkKvpAy2gwH-10" value="กำหนดตัวแปร j1" style="rounded=0;whiteSpace=wrap;html=1;" vertex="1" parent="1">
          <mxGeometry x="-698.0000000000001" y="-930" width="130" height="40" as="geometry" />
        </mxCell>
        <mxCell id="YUA5wfrdBOkKvpAy2gwH-11" value="กำหนดตัวแปร i1" style="rounded=0;whiteSpace=wrap;html=1;" vertex="1" parent="1">
          <mxGeometry x="-698.0000000000001" y="-1000" width="130" height="40" as="geometry" />
        </mxCell>
        <mxCell id="YUA5wfrdBOkKvpAy2gwH-12" value="" style="edgeStyle=orthogonalEdgeStyle;rounded=0;orthogonalLoop=1;jettySize=auto;html=1;" edge="1" parent="1" target="YUA5wfrdBOkKvpAy2gwH-14">
          <mxGeometry relative="1" as="geometry">
            <mxPoint x="-632.9655172413793" y="-820" as="sourcePoint" />
          </mxGeometry>
        </mxCell>
        <mxCell id="YUA5wfrdBOkKvpAy2gwH-13" value="" style="edgeStyle=orthogonalEdgeStyle;rounded=0;orthogonalLoop=1;jettySize=auto;html=1;" edge="1" parent="1" source="YUA5wfrdBOkKvpAy2gwH-14" target="YUA5wfrdBOkKvpAy2gwH-4">
          <mxGeometry relative="1" as="geometry" />
        </mxCell>
        <mxCell id="YUA5wfrdBOkKvpAy2gwH-14" value="กำหนดตัวแปร j2" style="rounded=0;whiteSpace=wrap;html=1;" vertex="1" parent="1">
          <mxGeometry x="-698.0000000000001" y="-790" width="130" height="40" as="geometry" />
        </mxCell>
        <mxCell id="YUA5wfrdBOkKvpAy2gwH-15" value="กำหนดตัวแปร i2" style="rounded=0;whiteSpace=wrap;html=1;" vertex="1" parent="1">
          <mxGeometry x="-698.0000000000001" y="-860" width="130" height="40" as="geometry" />
        </mxCell>
        <mxCell id="YUA5wfrdBOkKvpAy2gwH-16" value="" style="edgeStyle=orthogonalEdgeStyle;rounded=0;orthogonalLoop=1;jettySize=auto;html=1;" edge="1" parent="1" source="YUA5wfrdBOkKvpAy2gwH-17" target="YUA5wfrdBOkKvpAy2gwH-20">
          <mxGeometry relative="1" as="geometry" />
        </mxCell>
        <mxCell id="YUA5wfrdBOkKvpAy2gwH-17" value="กรอกตัวแปร j1" style="rounded=0;whiteSpace=wrap;html=1;shape=parallelogram;perimeter=parallelogramPerimeter;fixedSize=1;" vertex="1" parent="1">
          <mxGeometry x="-698.0000000000001" y="-510" width="130" height="40" as="geometry" />
        </mxCell>
        <mxCell id="YUA5wfrdBOkKvpAy2gwH-18" value="กรอกตัวแปร i1" style="rounded=0;whiteSpace=wrap;html=1;shape=parallelogram;perimeter=parallelogramPerimeter;fixedSize=1;" vertex="1" parent="1">
          <mxGeometry x="-696.0000000000001" y="-580" width="130" height="40" as="geometry" />
        </mxCell>
        <mxCell id="YUA5wfrdBOkKvpAy2gwH-19" value="" style="edgeStyle=orthogonalEdgeStyle;rounded=0;orthogonalLoop=1;jettySize=auto;html=1;" edge="1" parent="1" source="YUA5wfrdBOkKvpAy2gwH-20" target="YUA5wfrdBOkKvpAy2gwH-24">
          <mxGeometry relative="1" as="geometry" />
        </mxCell>
        <mxCell id="YUA5wfrdBOkKvpAy2gwH-20" value="กรอกตัวแปร arrinput 1" style="rounded=0;whiteSpace=wrap;html=1;shape=parallelogram;perimeter=parallelogramPerimeter;fixedSize=1;" vertex="1" parent="1">
          <mxGeometry x="-698.0000000000001" y="-440" width="130" height="40" as="geometry" />
        </mxCell>
        <mxCell id="YUA5wfrdBOkKvpAy2gwH-21" value="" style="edgeStyle=orthogonalEdgeStyle;rounded=0;orthogonalLoop=1;jettySize=auto;html=1;" edge="1" parent="1" target="YUA5wfrdBOkKvpAy2gwH-23">
          <mxGeometry relative="1" as="geometry">
            <mxPoint x="-634" y="-330" as="sourcePoint" />
          </mxGeometry>
        </mxCell>
        <mxCell id="YUA5wfrdBOkKvpAy2gwH-22" value="" style="edgeStyle=orthogonalEdgeStyle;rounded=0;orthogonalLoop=1;jettySize=auto;html=1;" edge="1" parent="1" source="YUA5wfrdBOkKvpAy2gwH-23" target="YUA5wfrdBOkKvpAy2gwH-26">
          <mxGeometry relative="1" as="geometry" />
        </mxCell>
        <mxCell id="YUA5wfrdBOkKvpAy2gwH-23" value="กรอกตัวแปร j2" style="rounded=0;whiteSpace=wrap;html=1;shape=parallelogram;perimeter=parallelogramPerimeter;fixedSize=1;" vertex="1" parent="1">
          <mxGeometry x="-700.0000000000001" y="-300" width="130" height="40" as="geometry" />
        </mxCell>
        <mxCell id="YUA5wfrdBOkKvpAy2gwH-24" value="กรอกตัวแปร i2" style="rounded=0;whiteSpace=wrap;html=1;shape=parallelogram;perimeter=parallelogramPerimeter;fixedSize=1;" vertex="1" parent="1">
          <mxGeometry x="-698.0000000000001" y="-370" width="130" height="40" as="geometry" />
        </mxCell>
        <mxCell id="YUA5wfrdBOkKvpAy2gwH-25" value="" style="edgeStyle=orthogonalEdgeStyle;rounded=0;orthogonalLoop=1;jettySize=auto;html=1;" edge="1" parent="1" source="YUA5wfrdBOkKvpAy2gwH-26" target="YUA5wfrdBOkKvpAy2gwH-29">
          <mxGeometry relative="1" as="geometry" />
        </mxCell>
        <mxCell id="YUA5wfrdBOkKvpAy2gwH-26" value="กรอกตัวแปร arrinput 2" style="rounded=0;whiteSpace=wrap;html=1;shape=parallelogram;perimeter=parallelogramPerimeter;fixedSize=1;" vertex="1" parent="1">
          <mxGeometry x="-700.0000000000001" y="-230" width="130" height="40" as="geometry" />
        </mxCell>
        <mxCell id="YUA5wfrdBOkKvpAy2gwH-27" value="" style="edgeStyle=orthogonalEdgeStyle;rounded=0;orthogonalLoop=1;jettySize=auto;html=1;" edge="1" parent="1" source="YUA5wfrdBOkKvpAy2gwH-29" target="YUA5wfrdBOkKvpAy2gwH-35">
          <mxGeometry relative="1" as="geometry" />
        </mxCell>
        <mxCell id="YUA5wfrdBOkKvpAy2gwH-28" style="edgeStyle=orthogonalEdgeStyle;rounded=0;orthogonalLoop=1;jettySize=auto;html=1;entryX=0;entryY=0.5;entryDx=0;entryDy=0;" edge="1" parent="1" source="YUA5wfrdBOkKvpAy2gwH-29" target="YUA5wfrdBOkKvpAy2gwH-41">
          <mxGeometry relative="1" as="geometry" />
        </mxCell>
        <mxCell id="YUA5wfrdBOkKvpAy2gwH-29" value="arr1 และ arr2&amp;nbsp;&lt;div&gt;เท่ากันหรือไม่&lt;/div&gt;" style="rhombus;whiteSpace=wrap;html=1;" vertex="1" parent="1">
          <mxGeometry x="-699" y="-160" width="128" height="80" as="geometry" />
        </mxCell>
        <mxCell id="YUA5wfrdBOkKvpAy2gwH-30" value="" style="edgeStyle=orthogonalEdgeStyle;rounded=0;orthogonalLoop=1;jettySize=auto;html=1;" edge="1" parent="1" source="YUA5wfrdBOkKvpAy2gwH-31" target="YUA5wfrdBOkKvpAy2gwH-33">
          <mxGeometry relative="1" as="geometry" />
        </mxCell>
        <mxCell id="YUA5wfrdBOkKvpAy2gwH-31" value="input1 =+ input2" style="rounded=0;whiteSpace=wrap;html=1;" vertex="1" parent="1">
          <mxGeometry x="-700.0000000000001" y="70" width="130" height="40" as="geometry" />
        </mxCell>
        <mxCell id="YUA5wfrdBOkKvpAy2gwH-32" value="" style="edgeStyle=orthogonalEdgeStyle;rounded=0;orthogonalLoop=1;jettySize=auto;html=1;" edge="1" parent="1" source="YUA5wfrdBOkKvpAy2gwH-33" target="YUA5wfrdBOkKvpAy2gwH-38">
          <mxGeometry relative="1" as="geometry" />
        </mxCell>
        <mxCell id="YUA5wfrdBOkKvpAy2gwH-33" value="บวกครบทุกตัวหรือไม่" style="rhombus;whiteSpace=wrap;html=1;" vertex="1" parent="1">
          <mxGeometry x="-699" y="170" width="128" height="80" as="geometry" />
        </mxCell>
        <mxCell id="YUA5wfrdBOkKvpAy2gwH-34" value="" style="edgeStyle=orthogonalEdgeStyle;rounded=0;orthogonalLoop=1;jettySize=auto;html=1;" edge="1" parent="1" source="YUA5wfrdBOkKvpAy2gwH-35" target="YUA5wfrdBOkKvpAy2gwH-31">
          <mxGeometry relative="1" as="geometry" />
        </mxCell>
        <mxCell id="YUA5wfrdBOkKvpAy2gwH-35" value="" style="ellipse;whiteSpace=wrap;html=1;aspect=fixed;" vertex="1" parent="1">
          <mxGeometry x="-650" y="-20" width="30" height="30" as="geometry" />
        </mxCell>
        <mxCell id="YUA5wfrdBOkKvpAy2gwH-36" style="edgeStyle=orthogonalEdgeStyle;rounded=0;orthogonalLoop=1;jettySize=auto;html=1;entryX=0;entryY=0.667;entryDx=0;entryDy=0;entryPerimeter=0;" edge="1" parent="1" source="YUA5wfrdBOkKvpAy2gwH-33" target="YUA5wfrdBOkKvpAy2gwH-35">
          <mxGeometry relative="1" as="geometry">
            <Array as="points">
              <mxPoint x="-740" y="210" />
              <mxPoint x="-740" />
            </Array>
          </mxGeometry>
        </mxCell>
        <mxCell id="YUA5wfrdBOkKvpAy2gwH-37" value="" style="edgeStyle=orthogonalEdgeStyle;rounded=0;orthogonalLoop=1;jettySize=auto;html=1;" edge="1" parent="1" source="YUA5wfrdBOkKvpAy2gwH-38" target="YUA5wfrdBOkKvpAy2gwH-43">
          <mxGeometry relative="1" as="geometry" />
        </mxCell>
        <mxCell id="YUA5wfrdBOkKvpAy2gwH-38" value="ปริ้น arrinput1" style="rounded=0;whiteSpace=wrap;html=1;shape=parallelogram;perimeter=parallelogramPerimeter;fixedSize=1;" vertex="1" parent="1">
          <mxGeometry x="-520.0000000000001" y="190" width="130" height="40" as="geometry" />
        </mxCell>
        <mxCell id="YUA5wfrdBOkKvpAy2gwH-39" value="&lt;font face=&quot;Sarabun&quot;&gt;END&lt;/font&gt;" style="ellipse;whiteSpace=wrap;html=1;" vertex="1" parent="1">
          <mxGeometry x="-290.0000000000001" y="195" width="130" height="30" as="geometry" />
        </mxCell>
        <mxCell id="YUA5wfrdBOkKvpAy2gwH-40" style="edgeStyle=orthogonalEdgeStyle;rounded=0;orthogonalLoop=1;jettySize=auto;html=1;entryX=0.5;entryY=0;entryDx=0;entryDy=0;" edge="1" parent="1" source="YUA5wfrdBOkKvpAy2gwH-41" target="YUA5wfrdBOkKvpAy2gwH-43">
          <mxGeometry relative="1" as="geometry" />
        </mxCell>
        <mxCell id="YUA5wfrdBOkKvpAy2gwH-41" value="Error: Invalid matrix input" style="rounded=0;whiteSpace=wrap;html=1;shape=parallelogram;perimeter=parallelogramPerimeter;fixedSize=1;" vertex="1" parent="1">
          <mxGeometry x="-425" y="-140" width="180" height="40" as="geometry" />
        </mxCell>
        <mxCell id="YUA5wfrdBOkKvpAy2gwH-42" value="" style="edgeStyle=orthogonalEdgeStyle;rounded=0;orthogonalLoop=1;jettySize=auto;html=1;" edge="1" parent="1" source="YUA5wfrdBOkKvpAy2gwH-43" target="YUA5wfrdBOkKvpAy2gwH-39">
          <mxGeometry relative="1" as="geometry" />
        </mxCell>
        <mxCell id="YUA5wfrdBOkKvpAy2gwH-43" value="" style="ellipse;whiteSpace=wrap;html=1;aspect=fixed;" vertex="1" parent="1">
          <mxGeometry x="-350" y="195" width="30" height="30" as="geometry" />
        </mxCell>
        <mxCell id="YUA5wfrdBOkKvpAy2gwH-44" value="T" style="text;html=1;align=center;verticalAlign=middle;resizable=0;points=[];autosize=1;strokeColor=none;fillColor=none;" vertex="1" parent="1">
          <mxGeometry x="-640" y="-90" width="30" height="30" as="geometry" />
        </mxCell>
        <mxCell id="YUA5wfrdBOkKvpAy2gwH-45" value="F" style="text;html=1;align=center;verticalAlign=middle;resizable=0;points=[];autosize=1;strokeColor=none;fillColor=none;" vertex="1" parent="1">
          <mxGeometry x="-580" y="-150" width="30" height="30" as="geometry" />
        </mxCell>
        <mxCell id="YUA5wfrdBOkKvpAy2gwH-46" value="T" style="text;html=1;align=center;verticalAlign=middle;resizable=0;points=[];autosize=1;strokeColor=none;fillColor=none;" vertex="1" parent="1">
          <mxGeometry x="-568" y="180" width="30" height="30" as="geometry" />
        </mxCell>
        <mxCell id="YUA5wfrdBOkKvpAy2gwH-47" value="F" style="text;html=1;align=center;verticalAlign=middle;resizable=0;points=[];autosize=1;strokeColor=none;fillColor=none;" vertex="1" parent="1">
          <mxGeometry x="-720" y="180" width="30" height="30" as="geometry" />
        </mxCell>
      </root>
    </mxGraphModel>
  </diagram>
</mxfile>
